<?xml version="1.0" encoding="UTF-8"?>
<svg id="Layer_1" width="132" height="46"  data-name="Layer 1" xmlns="http://www.w3.org/2000/svg" viewBox="0 0 1024 356">
  <defs>
    <style>
      .cls-1 {
        fill: #4affb9;
      }

      .cls-1, .cls-2, .cls-3 {
        stroke-width: 0px;
      }

      .cls-2 {
        fill: #f38a96;
      }

      .cls-3 {
        fill: #9424ff;
      }
    </style>
  </defs>
  <path class="cls-1" d="M293.84,177.24c-3.99-21.05-25.82-34.58-48.75-30.23-22.92,4.35-38.27,24.94-34.28,45.99,4,21.05,25.82,34.59,48.75,30.24,22.93-4.36,38.27-24.95,34.28-46ZM271.54,218.46c-7.95,4.82-23.4-6.12-34.51-24.43-11.12-18.32-13.69-37.08-5.74-41.9,7.95-4.82,23.4,6.12,34.52,24.43,11.11,18.32,13.68,37.08,5.73,41.9Z"/>
  <path class="cls-1" d="M778.19,178.49c-4.55-24.01-29.46-39.45-55.61-34.49-26.15,4.96-43.66,28.45-39.11,52.47,4.56,24.01,29.46,39.46,55.61,34.5,26.16-4.97,43.66-28.46,39.11-52.48ZM752.75,225.51c-9.07,5.5-26.69-6.98-39.37-27.87-12.69-20.9-15.62-42.3-6.55-47.8s26.69,6.98,39.38,27.87c12.67,20.9,15.61,42.3,6.54,47.8Z"/>
  <path class="cls-2" d="M464.82,143.99c-.33,0-.66,0-.98.02.21-.02.42-.03.64-.03.11,0,.23,0,.34.01Z"/>
  <path class="cls-3" d="M368,219.53v-89.02c0-2.34-.82-4.6-2.32-6.4l-.82-.99c-.9-1.08-.44-2.72.89-3.17l29.6-10.15c1.3-.45,2.65.52,2.65,1.89v107.84c0,1.55.36,3.08,1.06,4.47l2.5,4.99c.66,1.33-.3,2.89-1.79,2.89h-33.53c-1.49,0-2.45-1.56-1.79-2.89l2.5-4.99c.69-1.39,1.06-2.92,1.06-4.47h0Z"/>
  <path class="cls-3" d="M629.87,219.53v-89.02c0-2.34-.82-4.6-2.32-6.4l-.82-.99c-.9-1.08-.44-2.72.89-3.17l29.6-10.15c1.3-.45,2.65.52,2.65,1.89v107.84c0,1.55.36,3.08,1.06,4.47l2.5,4.99c.66,1.33-.3,2.89-1.79,2.89h-33.53c-1.49,0-2.45-1.56-1.79-2.89l2.5-4.99c.69-1.39,1.06-2.92,1.06-4.47h-.01Z"/>
  <path class="cls-3" d="M312.25,219.53v-51.02c0-2.34-.82-4.6-2.32-6.4l-.82-.99c-.9-1.08-.44-2.72.89-3.17l29.6-10.15c1.3-.45,2.65.52,2.65,1.89v69.84c0,1.55.36,3.08,1.06,4.47l2.5,4.99c.66,1.33-.3,2.89-1.79,2.89h-33.53c-1.49,0-2.45-1.56-1.79-2.89l2.5-4.99c.69-1.39,1.06-2.92,1.06-4.47h0Z"/>
  <circle class="cls-1" cx="328.32" cy="122.99" r="17.7"/>
  <circle class="cls-1" cx="578.8" cy="182.34" r="12.38"/>
  <path class="cls-2" d="M464.82,143.99c-.33,0-.66,0-.98.02.21-.02.42-.03.64-.03.11,0,.23,0,.34.01Z"/>
  <path class="cls-2" d="M445.66,175.02c-.1,1.41-.15,2.85-.15,4.31v.37c-.01-.43-.02-.87-.02-1.31,0-1.14.05-2.26.17-3.37h0Z"/>
  <path class="cls-1" d="M445.78,176.59c-.19,3.48-.04,6.99.67,10.4,2.24,10.71,8.33,17.29,17.38,22.09,2.44,1.3,5.06,2.31,7.81,2.98,2.58.64,5.28.97,8.06.97,13.61,0,25.36-8.05,30.88-19.71-2.49,22.41-22.03,39.86-45.76,39.86-25.42,0-46.03-20.02-46.03-44.71,0-3.67.45-7.24,1.32-10.65,3.81-15.17,15.59-27.3,30.78-31.99.03-.01.05-.02.08-.02,4.37-1.34,9.02-2.06,13.85-2.06,2.75,0,5.44.23,8.06.68-.04.01-.07.02-.11.02,1.65.21,3.26.48,4.84.83,19.07,4.17,33.07,18.39,33.07,43.05h-53.92l26.68-5c0-16.21-5.86-33.88-13.84-38.05-1.53-.8-3.12-1.24-4.78-1.29-.11-.01-.23-.01-.34-.01-.22,0-.43.01-.64.03-8.76.53-16.95,12.33-18.06,32.58h0Z"/>
  <path class="cls-3" d="M268.55,143.67h25.92v-20.68s-1.5,15.49-25.92,20.68Z"/>
  <path class="cls-1" d="M933.11,146.73h-25.92c4,3.61,4.92,6.02,6.08,8.51,1.72,3.7,2.04,6.32,1.91,12.17,3.96-11.53,4.79-11.79,17.93-20.68h0Z"/>
  <path class="cls-3" d="M294.01,258.67c0,11.07-8.97,20.04-20.04,20.04,3.59,0,6.51-2.92,6.51-6.51s-2.92-6.51-6.51-6.51h-44.09c-11.07,0-20.05-8.98-20.05-20.04s8.98-20.05,20.05-20.05c-3.6,0-6.51,2.92-6.51,6.51s2.91,6.51,6.51,6.51h44.09c11.07,0,20.04,8.98,20.04,20.05Z"/>
  <path class="cls-3" d="M102.63,182.44l23.23,49.15h-17.23s-17.74-.13-17.74-14.81,11.74-34.34,11.74-34.34Z"/>
  <path class="cls-1" d="M183.49,211.42l-47.12-99.15-15.83,33.7,40.3,85.62h38.17s-8.06-2.54-15.52-20.17h0Z"/>
  <path class="cls-3" d="M800.15,166.9l30.78,64.99,15.83-33.7-23.96-51.46h-38.17s8.06,2.54,15.52,20.17h0Z"/>
  <path class="cls-3" d="M855.04,166.9l30.78,64.99,15.83-33.7-23.96-51.46h-38.17s8.06,2.54,15.52,20.17h0Z"/>
  <path class="cls-3" d="M554.67,111.76h63.74v3.83c0,13.57-11.02,24.6-24.6,24.6h-63.74v-3.83c0-13.57,11.02-24.6,24.6-24.6Z"/>
  <path class="cls-3" d="M566.42,231.9h-41.23s4.55-5.73,4.89-14.05v-73h5.62c14.25,0,25.81,11.55,25.81,25.81v46.21c0,8.85,4.91,15.03,4.91,15.03h0Z"/>
</svg>